<svg id="Capa_1" enable-background="new 0 0 512 512" height="512" viewBox="0 0 512 512" width="512" xmlns="http://www.w3.org/2000/svg" xmlns:xlink="http://www.w3.org/1999/xlink"><linearGradient id="SVGID_1_" gradientUnits="userSpaceOnUse" x1="284" x2="284" y1="512.001" y2="76"><stop offset="0" stop-color="#a93aff"/><stop offset="1" stop-color="#ff81ff"/></linearGradient><linearGradient id="SVGID_2_" gradientUnits="userSpaceOnUse" x1="210.5" x2="210.5" y1="406" y2="0"><stop offset="0" stop-color="#ffbef9"/><stop offset="1" stop-color="#fff1ff"/></linearGradient><g><g><g><path d="m497 181h-195v-105h-246v167h185v209c0 8.284 6.716 15 15 15h128.787l40.606 40.606c4.297 4.298 10.752 5.569 16.347 3.252 5.605-2.322 9.26-7.792 9.26-13.858v-30h46c8.284 0 15-6.716 15-15v-256c0-8.284-6.716-15-15-15z" fill="url(#SVGID_1_)"/></g></g><g><g><path d="m376 376c-8.284 0-15 6.716-15 15s6.716 15 15 15 15-6.716 15-15-6.715-15-15-15zm0-135c-24.813 0-45 20.187-45 45 0 8.284 6.716 15 15 15s15-6.716 15-15c0-8.271 6.729-15 15-15s15 6.729 15 15c0 6.184-3.711 11.658-9.454 13.946-12.481 4.971-20.546 16.865-20.546 30.299v.755c0 8.284 6.716 15 15 15s15-6.716 15-15v-.755c0-1.06.662-2.036 1.647-2.429 17.224-6.861 28.353-23.274 28.353-41.816 0-24.813-20.186-45-45-45zm-45-135c0-58.449-47.102-106-105-106h-120c-28.046 0-54.592 11.1-74.746 31.254s-31.254 46.7-31.254 74.746v90c0 20.038 8.022 38.915 22.588 53.153 10.753 10.511 24.04 17.497 38.412 20.369v46.478c0 6.067 3.655 11.537 9.26 13.858 5.606 2.321 12.057 1.038 16.347-3.252l55.607-55.606h83.786c57.897 0 105-47.103 105-105zm-225 45c-8.284 0-15-6.716-15-15s6.716-15 15-15 15 6.716 15 15-6.715 15-15 15zm60 0c-8.284 0-15-6.716-15-15s6.716-15 15-15 15 6.716 15 15-6.715 15-15 15zm60 0c-8.284 0-15-6.716-15-15s6.716-15 15-15 15 6.716 15 15-6.715 15-15 15z" fill="url(#SVGID_2_)"/></g></g></g></svg>